<?xml version="1.0" encoding="UTF-8"?>
<svg id="Layer_1" data-name="Layer 1" xmlns="http://www.w3.org/2000/svg" version="1.1" viewBox="0 0 150 150">
  <defs>
    <style>
      .cls-1 {
        fill: #fff;
        stroke-width: 0px;
      }
    </style>
  </defs>
  <g>
    <rect class="cls-1" x="103.9" y="57.9" width="17" height="66.3"/>
    <rect class="cls-1" x="103.9" y="26.6" width="17" height="17.1" rx="4.7" ry="4.7"/>
    <path class="cls-1" d="M43.5,106.2h26v18h22v-34.5h-27.8l27.8-29.3V26.6l-59,60.8s-18.1,18.8,11,18.8Z"/>
  </g>
  <!-- <path class="cls-1" d="M115.8,142.9H34.2c-14.9,0-27.1-12.1-27.1-27.1V34.2c0-14.9,12.1-27.1,27.1-27.1h81.6c14.9,0,27.1,12.1,27.1,27.1v81.6c0,14.9-12.1,27.1-27.1,27.1h0ZM34.7,10c-13.6,0-24.6,11-24.6,24.6v80.7c0,13.6,11,24.6,24.6,24.6h80.7c13.6,0,24.6-11,24.6-24.6V34.7c0-13.6-11-24.6-24.6-24.6,0,0-80.7,0-80.7,0Z"/> -->
</svg>